<svg width="465" height="234" viewBox="0 0 465 234" fill="none" xmlns="http://www.w3.org/2000/svg">
<path d="M47.418 211H37.05V163.288H46.554V178.072H47.226C48.666 170.008 55.002 162.328 67.098 162.328C80.346 162.328 86.874 171.256 86.874 182.296V211H76.506V185.08C76.506 176.152 72.474 171.64 62.586 171.64C52.122 171.64 47.418 177.016 47.418 187.384V211ZM120.113 211.96C104.465 211.96 94.1925 203.128 94.1925 187.192C94.1925 172.312 104.369 162.328 119.921 162.328C134.705 162.328 144.785 170.488 144.785 184.984C144.785 186.712 144.689 188.056 144.401 189.496H103.889C104.273 198.712 108.785 203.608 119.825 203.608C129.809 203.608 133.937 200.344 133.937 194.68V193.912H144.305V194.776C144.305 204.952 134.321 211.96 120.113 211.96ZM119.729 170.488C109.169 170.488 104.561 175.192 103.984 183.736H134.993V183.544C134.993 174.712 129.905 170.488 119.729 170.488ZM183.846 211H172.902C162.63 211 156.294 206.488 156.294 194.872V171.928H148.23V163.288H156.294V152.824H166.566V163.288H183.846V171.928H166.566V194.296C166.566 200.152 169.254 201.688 175.206 201.688H183.846V211ZM213.179 211H200.315L186.011 163.288H196.763L204.731 190.36L206.939 202.648H207.707L211.259 189.4L221.243 163.288H234.491L244.571 189.4L248.123 202.648H248.891L251.099 190.36L259.067 163.288H269.627L255.131 211H242.267L231.803 183.544L228.155 171.832H227.387L223.739 183.544L213.179 211ZM299.278 211.96C283.438 211.96 272.782 201.88 272.782 187.192C272.782 172.312 283.438 162.328 299.278 162.328C315.214 162.328 325.87 172.312 325.87 187.192C325.87 201.88 315.214 211.96 299.278 211.96ZM299.278 202.744C310.894 202.744 315.694 197.272 315.694 187.192C315.694 177.016 310.894 171.448 299.278 171.448C287.758 171.448 282.958 177.016 282.958 187.192C282.958 197.272 287.758 202.744 299.278 202.744ZM343.762 211H333.394V163.288H342.898V176.152H343.57C345.01 168.472 350.194 162.328 359.986 162.328C370.834 162.328 375.538 170.104 375.538 179.128V185.368H365.266V181.144C365.266 174.328 362.386 171.16 355.282 171.16C347.122 171.16 343.762 175.672 343.762 184.216V211ZM392.418 211H382.05V146.68H392.418V182.2H406.05L420.354 163.288H432.45L414.498 186.232L432.354 211H420.162L406.05 191.512H392.418V211Z" fill="#141211"/>
<path d="M304.325 0C282.982 0 263.577 10.9246 252.408 29.2312C243.352 44.0698 227.723 53.7062 210.368 55.1554C208.84 55.2793 207.324 55.3412 205.809 55.3412C190.056 55.3412 174.987 48.5412 164.588 36.5638C157.557 28.4757 147.419 23.8309 136.785 23.8309C116.498 23.8433 100 40.292 100 60.5062C100 80.7203 116.498 97.1567 136.773 97.1567C147.419 97.1567 157.544 92.5119 164.576 84.4238C174.987 72.4464 190.056 65.6464 205.796 65.6464C207.312 65.6464 208.828 65.7084 210.356 65.8322C227.723 67.2814 243.339 76.9178 252.396 91.7564C263.564 110.075 282.982 121 304.325 121C337.781 121 365 93.862 365 60.5062C365 27.1504 337.781 0.0123825 304.325 0.0123825V0Z" fill="#141211"/>
</svg>
