<svg width="265" height="121" viewBox="0 0 265 121" fill="none" xmlns="http://www.w3.org/2000/svg">
<path d="M204.325 0C182.982 0 163.577 10.9246 152.408 29.2312C143.352 44.0698 127.723 53.7062 110.368 55.1554C108.84 55.2793 107.324 55.3412 105.809 55.3412C90.056 55.3412 74.9866 48.5412 64.5884 36.5638C57.5568 28.4757 47.4195 23.8309 36.7852 23.8309C16.4981 23.8433 0 40.292 0 60.5062C0 80.7203 16.4981 97.1567 36.7728 97.1567C47.4195 97.1567 57.5444 92.5119 64.576 84.4238C74.9866 72.4464 90.056 65.6464 105.796 65.6464C107.312 65.6464 108.828 65.7084 110.356 65.8322C127.723 67.2814 143.339 76.9178 152.396 91.7564C163.564 110.075 182.982 121 204.325 121C237.781 121 265 93.862 265 60.5062C265 27.1504 237.781 0.0123825 204.325 0.0123825V0Z" fill="#141211"/>
</svg>
